<mxfile host="app.diagrams.net" modified="2024-07-08T02:02:54.003Z" agent="Mozilla/5.0 (Windows NT 10.0; Win64; x64) AppleWebKit/537.36 (KHTML, like Gecko) Chrome/126.0.0.0 Safari/537.36 Edg/126.0.0.0" etag="Lld0utqMtDquqnuKGmyY" version="24.6.4" type="device">
  <diagram name="第 1 页" id="gXZAGXUBOfqpg-vaJJAJ">
    <mxGraphModel dx="1242" dy="1712" grid="1" gridSize="10" guides="1" tooltips="1" connect="1" arrows="1" fold="1" page="1" pageScale="1" pageWidth="827" pageHeight="1169" math="0" shadow="0">
      <root>
        <mxCell id="0" />
        <mxCell id="1" parent="0" />
        <mxCell id="alEQZMSAMfPWq9P1h2pg-1" value="trainx(32,1,170,12)" style="text;strokeColor=none;align=center;fillColor=none;html=1;verticalAlign=middle;whiteSpace=wrap;rounded=0;" parent="1" vertex="1">
          <mxGeometry x="330" y="10" width="160" height="30" as="geometry" />
        </mxCell>
        <mxCell id="alEQZMSAMfPWq9P1h2pg-2" value="trainy(32,1,170,12)" style="text;strokeColor=none;align=center;fillColor=none;html=1;verticalAlign=middle;whiteSpace=wrap;rounded=0;" parent="1" vertex="1">
          <mxGeometry x="470" y="10" width="160" height="30" as="geometry" />
        </mxCell>
        <mxCell id="alEQZMSAMfPWq9P1h2pg-4" value="batches_seen=20480" style="text;whiteSpace=wrap;html=1;" parent="1" vertex="1">
          <mxGeometry x="630" y="10" width="130" height="40" as="geometry" />
        </mxCell>
        <mxCell id="alEQZMSAMfPWq9P1h2pg-5" value="his=12&lt;div&gt;pred=12&lt;/div&gt;&lt;div&gt;batch=32&lt;/div&gt;" style="shape=note;whiteSpace=wrap;html=1;backgroundOutline=1;fontColor=#000000;darkOpacity=0.05;fillColor=#FFF9B2;strokeColor=none;fillStyle=solid;direction=west;gradientDirection=north;gradientColor=#FFF2A1;shadow=1;size=20;pointerEvents=1;" parent="1" vertex="1">
          <mxGeometry x="60" y="-60" width="140" height="160" as="geometry" />
        </mxCell>
        <mxCell id="alEQZMSAMfPWq9P1h2pg-6" value="" style="endArrow=classic;html=1;rounded=0;" parent="1" edge="1">
          <mxGeometry width="50" height="50" relative="1" as="geometry">
            <mxPoint x="409.66" y="40" as="sourcePoint" />
            <mxPoint x="409.66" y="90" as="targetPoint" />
          </mxGeometry>
        </mxCell>
        <mxCell id="alEQZMSAMfPWq9P1h2pg-7" value="" style="endArrow=classic;html=1;rounded=0;" parent="1" edge="1">
          <mxGeometry width="50" height="50" relative="1" as="geometry">
            <mxPoint x="549.66" y="40" as="sourcePoint" />
            <mxPoint x="549.66" y="90" as="targetPoint" />
          </mxGeometry>
        </mxCell>
        <mxCell id="alEQZMSAMfPWq9P1h2pg-8" value="" style="endArrow=classic;html=1;rounded=0;" parent="1" edge="1">
          <mxGeometry width="50" height="50" relative="1" as="geometry">
            <mxPoint x="690" y="40" as="sourcePoint" />
            <mxPoint x="690" y="90" as="targetPoint" />
          </mxGeometry>
        </mxCell>
        <mxCell id="alEQZMSAMfPWq9P1h2pg-9" value="inputs(12,32,170,1)" style="text;strokeColor=none;align=center;fillColor=none;html=1;verticalAlign=middle;whiteSpace=wrap;rounded=0;" parent="1" vertex="1">
          <mxGeometry x="350" y="90" width="120" height="30" as="geometry" />
        </mxCell>
        <mxCell id="alEQZMSAMfPWq9P1h2pg-10" value="labels(32,1,170,12)" style="text;strokeColor=none;align=center;fillColor=none;html=1;verticalAlign=middle;whiteSpace=wrap;rounded=0;" parent="1" vertex="1">
          <mxGeometry x="490" y="90" width="120" height="30" as="geometry" />
        </mxCell>
        <mxCell id="alEQZMSAMfPWq9P1h2pg-11" value="" style="endArrow=classic;html=1;rounded=0;" parent="1" edge="1">
          <mxGeometry width="50" height="50" relative="1" as="geometry">
            <mxPoint x="409.66" y="110" as="sourcePoint" />
            <mxPoint x="409.66" y="160" as="targetPoint" />
          </mxGeometry>
        </mxCell>
        <mxCell id="alEQZMSAMfPWq9P1h2pg-12" value="inputs(12,32,170)" style="text;strokeColor=none;align=center;fillColor=none;html=1;verticalAlign=middle;whiteSpace=wrap;rounded=0;" parent="1" vertex="1">
          <mxGeometry x="350" y="160" width="120" height="30" as="geometry" />
        </mxCell>
        <mxCell id="alEQZMSAMfPWq9P1h2pg-13" value="" style="endArrow=classic;html=1;rounded=0;" parent="1" edge="1">
          <mxGeometry width="50" height="50" relative="1" as="geometry">
            <mxPoint x="549.66" y="110" as="sourcePoint" />
            <mxPoint x="550" y="130" as="targetPoint" />
          </mxGeometry>
        </mxCell>
        <mxCell id="alEQZMSAMfPWq9P1h2pg-14" value="labels(12,32,170,1)" style="text;strokeColor=none;align=center;fillColor=none;html=1;verticalAlign=middle;whiteSpace=wrap;rounded=0;" parent="1" vertex="1">
          <mxGeometry x="490" y="130" width="120" height="30" as="geometry" />
        </mxCell>
        <mxCell id="alEQZMSAMfPWq9P1h2pg-15" value="" style="endArrow=classic;html=1;rounded=0;" parent="1" edge="1">
          <mxGeometry width="50" height="50" relative="1" as="geometry">
            <mxPoint x="549.66" y="150" as="sourcePoint" />
            <mxPoint x="550" y="170" as="targetPoint" />
          </mxGeometry>
        </mxCell>
        <mxCell id="alEQZMSAMfPWq9P1h2pg-16" value="labels(12,32,170)" style="text;strokeColor=none;align=center;fillColor=none;html=1;verticalAlign=middle;whiteSpace=wrap;rounded=0;" parent="1" vertex="1">
          <mxGeometry x="490" y="170" width="120" height="30" as="geometry" />
        </mxCell>
        <mxCell id="alEQZMSAMfPWq9P1h2pg-17" value="self.encoder(inputs)" style="text;whiteSpace=wrap;html=1;" parent="1" vertex="1">
          <mxGeometry x="414" y="200" width="140" height="40" as="geometry" />
        </mxCell>
        <mxCell id="alEQZMSAMfPWq9P1h2pg-19" value="" style="endArrow=classic;html=1;rounded=0;" parent="1" edge="1">
          <mxGeometry width="50" height="50" relative="1" as="geometry">
            <mxPoint x="409.76" y="190" as="sourcePoint" />
            <mxPoint x="409.76" y="240" as="targetPoint" />
          </mxGeometry>
        </mxCell>
        <mxCell id="alEQZMSAMfPWq9P1h2pg-20" value="encoder_hidden_state(2,32,10880)" style="text;whiteSpace=wrap;html=1;" parent="1" vertex="1">
          <mxGeometry x="310" y="240" width="200" height="40" as="geometry" />
        </mxCell>
        <mxCell id="alEQZMSAMfPWq9P1h2pg-21" value="self.decoder(encoder_hidden_state, labels, batches_seen=batches_seen)" style="text;whiteSpace=wrap;html=1;" parent="1" vertex="1">
          <mxGeometry x="414" y="280" width="430" height="40" as="geometry" />
        </mxCell>
        <mxCell id="alEQZMSAMfPWq9P1h2pg-22" value="" style="endArrow=classic;html=1;rounded=0;" parent="1" edge="1">
          <mxGeometry width="50" height="50" relative="1" as="geometry">
            <mxPoint x="409.76" y="260" as="sourcePoint" />
            <mxPoint x="410" y="330" as="targetPoint" />
          </mxGeometry>
        </mxCell>
        <mxCell id="alEQZMSAMfPWq9P1h2pg-23" value="" style="endArrow=classic;html=1;rounded=0;" parent="1" edge="1">
          <mxGeometry width="50" height="50" relative="1" as="geometry">
            <mxPoint x="549.76" y="200" as="sourcePoint" />
            <mxPoint x="410" y="280" as="targetPoint" />
            <Array as="points">
              <mxPoint x="550" y="280" />
            </Array>
          </mxGeometry>
        </mxCell>
        <mxCell id="alEQZMSAMfPWq9P1h2pg-26" value="outputs(12,32,170)" style="text;strokeColor=none;align=center;fillColor=none;html=1;verticalAlign=middle;whiteSpace=wrap;rounded=0;" parent="1" vertex="1">
          <mxGeometry x="350" y="330" width="120" height="30" as="geometry" />
        </mxCell>
        <mxCell id="alEQZMSAMfPWq9P1h2pg-27" value="" style="endArrow=classic;html=1;rounded=0;" parent="1" edge="1">
          <mxGeometry width="50" height="50" relative="1" as="geometry">
            <mxPoint x="409.76" y="560" as="sourcePoint" />
            <mxPoint x="410" y="630" as="targetPoint" />
          </mxGeometry>
        </mxCell>
        <mxCell id="alEQZMSAMfPWq9P1h2pg-28" value="outputs(12,32,170)" style="text;strokeColor=none;align=center;fillColor=none;html=1;verticalAlign=middle;whiteSpace=wrap;rounded=0;" parent="1" vertex="1">
          <mxGeometry x="350" y="630" width="120" height="30" as="geometry" />
        </mxCell>
        <mxCell id="alEQZMSAMfPWq9P1h2pg-30" value="" style="endArrow=classic;html=1;rounded=0;" parent="1" edge="1">
          <mxGeometry width="50" height="50" relative="1" as="geometry">
            <mxPoint x="410" y="350" as="sourcePoint" />
            <mxPoint x="410" y="400" as="targetPoint" />
          </mxGeometry>
        </mxCell>
        <mxCell id="alEQZMSAMfPWq9P1h2pg-31" value="outputs(12,32,170,1)" style="text;strokeColor=none;align=center;fillColor=none;html=1;verticalAlign=middle;whiteSpace=wrap;rounded=0;" parent="1" vertex="1">
          <mxGeometry x="350" y="400" width="120" height="30" as="geometry" />
        </mxCell>
        <mxCell id="alEQZMSAMfPWq9P1h2pg-32" value="outputs.permute(1, 3, 2, 0)" style="text;whiteSpace=wrap;html=1;" parent="1" vertex="1">
          <mxGeometry x="420" y="430" width="170" height="40" as="geometry" />
        </mxCell>
        <mxCell id="alEQZMSAMfPWq9P1h2pg-33" value="" style="endArrow=classic;html=1;rounded=0;" parent="1" edge="1">
          <mxGeometry width="50" height="50" relative="1" as="geometry">
            <mxPoint x="410" y="420" as="sourcePoint" />
            <mxPoint x="410" y="470" as="targetPoint" />
          </mxGeometry>
        </mxCell>
        <mxCell id="alEQZMSAMfPWq9P1h2pg-34" value="outputs(32,1,170,12)" style="text;strokeColor=none;align=center;fillColor=none;html=1;verticalAlign=middle;whiteSpace=wrap;rounded=0;" parent="1" vertex="1">
          <mxGeometry x="350" y="470" width="120" height="30" as="geometry" />
        </mxCell>
        <mxCell id="alEQZMSAMfPWq9P1h2pg-37" value="" style="endArrow=classic;html=1;rounded=0;" parent="1" edge="1">
          <mxGeometry width="50" height="50" relative="1" as="geometry">
            <mxPoint x="410" y="490" as="sourcePoint" />
            <mxPoint x="410" y="540" as="targetPoint" />
          </mxGeometry>
        </mxCell>
        <mxCell id="alEQZMSAMfPWq9P1h2pg-38" value="outputs(32,12,170,1)" style="text;strokeColor=none;align=center;fillColor=none;html=1;verticalAlign=middle;whiteSpace=wrap;rounded=0;" parent="1" vertex="1">
          <mxGeometry x="350" y="540" width="120" height="30" as="geometry" />
        </mxCell>
      </root>
    </mxGraphModel>
  </diagram>
</mxfile>
